<svg width="59" height="77" viewBox="0 0 59 77" fill="none" xmlns="http://www.w3.org/2000/svg">
<path fill-rule="evenodd" clip-rule="evenodd" d="M24.6775 14.5972C17.3133 14.5972 12.4546 23.0602 12.4546 33.5C12.4546 43.9396 17.3133 76.8652 24.6775 76.8652C28.9735 76.8652 29.4615 49.5226 35.2337 49.498C42.1169 49.5226 41.4938 76.8652 45.7898 76.8652C53.154 76.8652 58.0127 43.9396 58.0127 33.5C58.0127 23.0602 53.154 14.5972 45.7898 14.5972C42.271 14.5972 38.7524 17.933 35.2337 17.933C31.7149 17.933 28.1963 14.5972 24.6775 14.5972Z" fill="white"/>
<path d="M15.6283 9.00676C14.5563 7.47343 13.1123 6.388 11.5687 5.58618L11.5687 5.58617C9.34725 4.43234 7.04516 4.26909 5.15173 5.31265C3.2734 6.3479 2.16418 8.36936 1.87951 10.8154C1.43568 14.1644 2.29933 17.5559 4.2913 20.2849L4.29129 20.2849L4.29624 20.2916C6.70265 23.5501 9.34999 26.6447 11.9547 29.6894C12.6325 30.4817 13.3074 31.2707 13.9744 32.0582L13.9745 32.0583C14.3787 32.5355 14.8762 32.84 15.2372 33.0412C15.4416 33.1551 15.5867 33.2301 15.7084 33.293C15.8629 33.3729 15.9799 33.4333 16.1328 33.5292L17.1089 34.1413L17.952 33.3561C18.255 33.0739 18.5317 32.7647 18.7786 32.4323L18.844 32.3443L18.8959 32.2476C19.54 31.0484 20.1851 29.849 20.8304 28.6491C23.3469 23.97 25.8668 19.2846 28.3478 14.5799C29.6168 12.1736 30.2572 9.48086 29.6168 6.57475C29.2154 4.75314 28.3379 3.19137 26.7962 2.42995C25.2476 1.6652 23.476 1.92746 21.7854 2.75142C19.4712 3.87109 17.5466 5.65998 16.261 7.88627C16.0468 8.25224 15.8372 8.62603 15.6283 9.00676Z" fill="#CD4438" stroke="#CD4438" stroke-width="3"/>
</svg>
