<svg width="15" height="29" viewBox="0 0 15 29" fill="none" xmlns="http://www.w3.org/2000/svg">
<path d="M7.94501 0.395935C4.02501 0.395935 0.945007 3.47593 0.945007 7.39594C0.945007 10.6159 6.12501 23.6359 6.68501 25.1759L7.94501 28.3959L9.20501 25.1759C9.76501 23.6359 14.945 10.6159 14.945 7.39594C14.945 3.47593 11.865 0.395935 7.94501 0.395935ZM7.94501 20.6959C5.98501 15.5159 3.74501 9.07594 3.74501 7.39594C3.74501 5.01593 5.56501 3.19594 7.94501 3.19594C10.325 3.19594 12.145 5.01593 12.145 7.39594C12.145 9.07594 9.90501 15.5159 7.94501 20.6959Z" fill="black"/>
<path d="M7.94501 8.79594C8.71821 8.79594 9.34501 8.16914 9.34501 7.39594C9.34501 6.62274 8.71821 5.99594 7.94501 5.99594C7.17181 5.99594 6.54501 6.62274 6.54501 7.39594C6.54501 8.16914 7.17181 8.79594 7.94501 8.79594Z" fill="black"/>
</svg>
