<svg width="98" height="121" viewBox="0 0 98 121" fill="none" xmlns="http://www.w3.org/2000/svg">
<path d="M80.3401 17.1564C68.9485 6.40022 53.0512 0.713229 34.3758 0.713228L6.97676 0.713227C5.17974 0.713227 3.45633 1.42652 2.18565 2.69619C0.914966 3.96585 0.201111 5.68787 0.20111 7.48345L0.201105 113.53C0.201104 115.326 0.91496 117.048 2.18564 118.318C3.45632 119.587 5.17974 120.301 6.97675 120.301L34.3758 120.301C53.0088 120.301 68.9485 114.614 80.3401 103.858C91.7316 93.1014 97.762 78.1053 97.762 60.4943C97.762 42.8833 91.7401 27.9549 80.3401 17.1564ZM94.84 60.5197C94.84 77.3014 89.1315 91.5611 78.3328 101.759C67.5341 111.956 52.2889 117.406 34.3758 117.406L6.97675 117.406C5.94865 117.404 4.9633 116.995 4.23632 116.269C3.50934 115.542 3.09994 114.558 3.09771 113.53L3.09771 7.50883C3.09995 6.48155 3.50935 5.49699 4.23633 4.7706C4.96331 4.0442 5.94866 3.63512 6.97676 3.63288L34.3758 3.63288C52.2889 3.63288 67.4918 9.0406 78.3328 19.2806C89.1738 29.5205 94.84 43.738 94.84 60.5197Z" fill="#036661"/>
<path d="M47.2241 32.8802L47.9102 33.5657L72.9123 58.5478C73.6985 59.3333 74.7648 59.7747 75.8767 59.7747C76.9885 59.7747 78.0548 59.3333 78.841 58.5478C79.6272 57.7622 80.0689 56.6968 80.0689 55.5858C80.0689 54.4748 79.6272 53.4094 78.841 52.6238L62.2407 36.0368L60.0471 33.8788L56.1087 29.9436C55.8267 29.638 55.674 29.2351 55.6828 28.8195C55.6916 28.4039 55.8612 28.0079 56.1559 27.7144C56.4507 27.421 56.8477 27.2531 57.2636 27.2459C57.6796 27.2386 58.0822 27.3926 58.387 27.6756L69.2027 38.4825L71.0236 36.6546L60.208 25.8307C59.4218 25.0451 58.3555 24.6038 57.2436 24.6038C56.1318 24.6038 55.0655 25.0451 54.2793 25.8307C53.4931 26.6162 53.0514 27.6817 53.0514 28.7926C53.0514 29.9036 53.4931 30.9691 54.2793 31.7546L58.2092 35.6898L77.0031 54.4603C77.2998 54.7635 77.4669 55.1702 77.469 55.5943C77.4678 55.9114 77.3728 56.2211 77.1959 56.4845C77.019 56.7478 76.7681 56.953 76.4747 57.0742C76.1814 57.1954 75.8588 57.2273 75.5474 57.1657C75.236 57.1041 74.9498 56.952 74.7248 56.7283L49.7311 31.7546L40.4146 22.4456C40.0253 22.0566 39.5632 21.748 39.0546 21.5375C38.5459 21.327 38.0008 21.2187 37.4503 21.2187C36.8998 21.2187 36.3546 21.327 35.846 21.5375C35.3374 21.748 34.8752 22.0566 34.4859 22.4456C34.0967 22.8345 33.7879 23.2963 33.5772 23.8045C33.3665 24.3128 33.258 24.8574 33.258 25.4075C33.258 25.9576 33.3665 26.5023 33.5772 27.0106C33.7879 27.5188 34.0967 27.9805 34.4859 28.3695L49.5363 43.3571L50.8322 44.6603L76.1138 69.9133C76.2636 70.0626 76.3825 70.2401 76.4636 70.4354C76.5447 70.6307 76.5864 70.8401 76.5864 71.0515C76.5864 71.263 76.5447 71.4724 76.4636 71.6677C76.3825 71.863 76.2636 72.0404 76.1138 72.1898C75.8081 72.4815 75.4016 72.6444 74.9789 72.6444C74.5562 72.6444 74.1497 72.4815 73.844 72.1898L22.7895 21.1846C22.2027 20.6017 21.4565 20.2053 20.6447 20.0454C19.8329 19.8854 18.9919 19.9691 18.2276 20.2858C17.4633 20.6025 16.8099 21.1381 16.3497 21.8251C15.8894 22.5121 15.6429 23.3198 15.6412 24.1466C15.6386 24.6958 15.7459 25.24 15.9568 25.7472C16.1677 26.2544 16.4779 26.7144 16.8692 27.1001L59.0053 69.2278L71.0236 81.2703C71.3236 81.5716 71.492 81.9793 71.492 82.4043C71.492 82.8293 71.3236 83.237 71.0236 83.5383C70.7189 83.8321 70.3121 83.9962 69.8887 83.9962C69.4653 83.9962 69.0585 83.8321 68.7538 83.5383L22.7217 37.5432C22.3324 37.1542 21.8703 36.8456 21.3617 36.6351C20.853 36.4246 20.3079 36.3163 19.7574 36.3163C19.2068 36.3163 18.6617 36.4246 18.1531 36.6351C17.6444 36.8456 17.1823 37.1542 16.793 37.5432C16.4037 37.9321 16.0949 38.3939 15.8843 38.9021C15.6736 39.4103 15.5652 39.955 15.5652 40.5051C15.5652 41.0552 15.6736 41.5999 15.8843 42.1081C16.0949 42.6164 16.4037 43.0781 16.793 43.4671L62.8336 89.4708C63.132 89.7746 63.2992 90.1833 63.2992 90.609C63.2992 91.0347 63.132 91.4434 62.8336 91.7472C62.5218 92.0303 62.1156 92.1871 61.6944 92.1871C61.2731 92.1871 60.867 92.0303 60.5552 91.7472L22.2643 53.4278C21.8751 53.0388 21.4129 52.7303 20.9043 52.5198C20.3957 52.3093 19.8505 52.2009 19.3 52.2009C18.7495 52.2009 18.2043 52.3093 17.6957 52.5198C17.1871 52.7303 16.7249 53.0388 16.3357 53.4278C15.9464 53.8168 15.6376 54.2785 15.4269 54.7868C15.2162 55.295 15.1078 55.8397 15.1078 56.3898C15.1078 56.9399 15.2162 57.4845 15.4269 57.9928C15.6376 58.501 15.9464 58.9628 16.3356 59.3517L28.8791 71.8851L30.1749 73.1884L50.7051 93.6937C51.0031 93.996 51.17 94.4033 51.17 94.8277C51.17 95.252 51.0031 95.6593 50.7051 95.9617C50.3934 96.2447 49.9872 96.4016 49.566 96.4016C49.1447 96.4016 48.7386 96.2447 48.4268 95.9617L33.6051 81.1518L22.9504 70.4972C22.1642 69.7116 21.0979 69.2703 19.986 69.2703C18.8742 69.2703 17.8079 69.7116 17.0217 70.4972C16.2355 71.2828 15.7938 72.3482 15.7938 73.4592C15.7938 74.5701 16.2355 75.6356 17.0217 76.4211L19.2915 78.6976L25.1016 84.4946L29.4719 88.8699L35.8156 95.217C36.0856 95.5213 36.2301 95.9164 36.2201 96.3229C36.2102 96.7294 36.0465 97.117 35.762 97.4077C35.4774 97.6984 35.0933 97.8706 34.6868 97.8897C34.2803 97.9087 33.8817 97.7732 33.5712 97.5104L30.7085 94.65L23.0351 86.9827C22.2489 86.1971 21.1826 85.7558 20.0707 85.7558C18.9589 85.7558 17.8926 86.1971 17.1064 86.9827C16.3202 87.7683 15.8785 88.8337 15.8785 89.9447C15.8785 91.0556 16.3202 92.1211 17.1064 92.9066L25.4828 101.276L27.3122 99.4568L18.9358 91.0871C18.6697 90.7798 18.53 90.3832 18.5447 89.9771C18.5594 89.571 18.7274 89.1855 19.015 88.8982C19.3025 88.6109 19.6883 88.443 20.0947 88.4283C20.5012 88.4136 20.8981 88.5533 21.2056 88.8191L23.5687 91.1802L31.7503 99.296C32.5419 100.071 33.6061 100.506 34.7146 100.506C35.8231 100.506 36.8873 100.071 37.6789 99.296C38.0692 98.9076 38.3789 98.446 38.5902 97.9377C38.8015 97.4294 38.9103 96.8844 38.9103 96.334C38.9103 95.7837 38.8015 95.2387 38.5902 94.7304C38.3789 94.2221 38.0692 93.7605 37.6789 93.3721L31.3268 87.025L21.1633 76.8697L18.8935 74.6016C18.5935 74.3003 18.4251 73.8926 18.4251 73.4676C18.4251 73.0426 18.5935 72.6349 18.8935 72.3336C19.2052 72.0506 19.6114 71.8937 20.0326 71.8937C20.4539 71.8937 20.86 72.0506 21.1718 72.3336L31.7926 82.9629L34.5537 85.7217L46.6143 97.7812C47.2012 98.3675 47.9489 98.7666 48.7629 98.9279C49.5769 99.0893 50.4205 99.0056 51.1869 98.6875C51.9533 98.3694 52.608 97.8313 53.068 97.1411C53.528 96.451 53.7727 95.64 53.7711 94.8108C53.7737 94.2615 53.6664 93.7173 53.4555 93.2101C53.2446 92.7029 52.9344 92.243 52.543 91.8573L32.0213 71.3435L30.7254 70.0487L18.199 57.5238C17.8985 57.221 17.7299 56.8119 17.7299 56.3855C17.7299 55.9591 17.8985 55.55 18.199 55.2473C18.5107 54.9642 18.9169 54.8074 19.3381 54.8074C19.7594 54.8074 20.1655 54.9642 20.4773 55.2473L58.7766 93.516C59.1654 93.9059 59.6273 94.2153 60.136 94.4265C60.6447 94.6376 61.1901 94.7463 61.741 94.7463C62.2918 94.7463 62.8372 94.6376 63.3459 94.4265C63.8546 94.2153 64.3166 93.9059 64.7053 93.516C65.0956 93.1275 65.4053 92.6659 65.6166 92.1576C65.8279 91.6494 65.9366 91.1044 65.9366 90.554C65.9366 90.0036 65.8279 89.4586 65.6166 88.9503C65.4053 88.442 65.0956 87.9804 64.7053 87.592L18.6224 41.5968C18.3245 41.2945 18.1575 40.8871 18.1575 40.4628C18.1575 40.0385 18.3245 39.6312 18.6224 39.3288C18.9271 39.0351 19.334 38.871 19.7574 38.871C20.1807 38.871 20.5876 39.0351 20.8923 39.3288L66.9328 85.3324C67.5179 85.9161 68.263 86.3134 69.0739 86.4743C69.8848 86.6351 70.7252 86.5524 71.4891 86.2364C72.253 85.9204 72.9061 85.3854 73.3659 84.6988C73.8257 84.0123 74.0716 83.205 74.0727 82.3789C74.0751 81.8292 73.9686 81.2845 73.7593 80.7761C73.55 80.2677 73.2419 79.8058 72.853 79.417L62.7743 69.3463L18.6902 25.2806C18.3923 24.9782 18.2253 24.5709 18.2253 24.1466C18.2253 23.7223 18.3923 23.315 18.6902 23.0126C19.002 22.7295 19.4081 22.5727 19.8293 22.5727C20.2506 22.5727 20.6567 22.7295 20.9685 23.0126L72.0061 74.0093C72.7923 74.7948 73.8586 75.2362 74.9704 75.2362C76.0823 75.2362 77.1486 74.7948 77.9348 74.0093C78.721 73.2237 79.1626 72.1583 79.1626 71.0473C79.1626 69.9363 78.721 68.8709 77.9348 68.0853L52.145 42.3416L36.3323 26.5331C36.1656 26.3879 36.0307 26.21 35.9359 26.0104C35.8411 25.8108 35.7885 25.5939 35.7814 25.3731C35.7742 25.1523 35.8127 24.9323 35.8944 24.727C35.9761 24.5217 36.0992 24.3355 36.2561 24.1799C36.413 24.0242 36.6004 23.9026 36.8064 23.8225C37.0125 23.7424 37.2329 23.7056 37.4538 23.7144C37.6747 23.7232 37.8914 23.7774 38.0905 23.8736C38.2895 23.9698 38.4666 24.1059 38.6106 24.2735L45.1576 30.8153L47.2241 32.8802Z" fill="#036661" stroke="#036661" stroke-width="0.5"/>
</svg>
