<svg width="81" height="81" viewBox="0 0 81 81" fill="none" xmlns="http://www.w3.org/2000/svg">
<circle cx="40.945" cy="40.1858" r="38.5" fill="#036661" stroke="white" stroke-width="3"/>
<path d="M58.071 20.6566C52.9564 15.8563 45.8189 13.3183 37.434 13.3183L25.1324 13.3183C24.3256 13.3183 23.5518 13.6366 22.9813 14.2033C22.4108 14.7699 22.0903 15.5384 22.0903 16.3397L22.0903 63.6663C22.0903 64.4678 22.4108 65.2363 22.9813 65.8031C23.5518 66.3694 24.3256 66.688 25.1324 66.688H37.434C45.7998 66.688 52.9564 64.15 58.071 59.3499C63.1856 54.5494 65.8931 47.8569 65.8931 39.9975C65.8931 32.138 63.1894 25.4757 58.071 20.6566ZM64.5812 40.0088C64.5812 47.4981 62.0182 53.862 57.1698 58.4131C52.3214 62.9638 45.4766 65.3961 37.434 65.3961H25.1324C24.6708 65.3952 24.2284 65.2126 23.902 64.8886C23.5756 64.5642 23.3918 64.1251 23.3908 63.6663V16.351C23.3918 15.8926 23.5756 15.4532 23.902 15.129C24.2284 14.8048 24.6708 14.6223 25.1324 14.6213H37.434C45.4766 14.6213 52.3024 17.0346 57.1698 21.6046C62.0372 26.1744 64.5812 32.5194 64.5812 40.0088Z" fill="white"/>
<path d="M43.2026 27.6738L43.5107 27.9797L54.7361 39.1287C55.0891 39.4793 55.5679 39.6763 56.0671 39.6763C56.5663 39.6763 57.045 39.4793 57.398 39.1287C57.751 38.7781 57.9493 38.3027 57.9493 37.8069C57.9493 37.311 57.751 36.8356 57.398 36.485L49.9448 29.0825L48.9599 28.1194L47.1916 26.3632C47.065 26.2268 46.9965 26.047 47.0004 25.8616C47.0044 25.6761 47.0805 25.4994 47.2128 25.3684C47.3452 25.2374 47.5234 25.1625 47.7102 25.1593C47.897 25.156 48.0777 25.2248 48.2146 25.3511L53.0706 30.174L53.8881 29.3582L49.0322 24.5277C48.6792 24.1771 48.2004 23.9802 47.7012 23.9802C47.202 23.9802 46.7233 24.1771 46.3703 24.5277C46.0173 24.8783 45.819 25.3538 45.819 25.8496C45.819 26.3454 46.0173 26.8209 46.3703 27.1714L48.1347 28.9277L56.5728 37.3046C56.706 37.4399 56.781 37.6214 56.782 37.8107C56.7814 37.9522 56.7388 38.0904 56.6594 38.2079C56.5799 38.3254 56.4673 38.417 56.3356 38.4711C56.2039 38.5252 56.059 38.5394 55.9192 38.5119C55.7794 38.4844 55.6509 38.4166 55.5499 38.3167L44.3282 27.1714L40.1453 23.017C39.9705 22.8434 39.7631 22.7057 39.5347 22.6117C39.3063 22.5178 39.0616 22.4695 38.8144 22.4695C38.5672 22.4695 38.3225 22.5178 38.0941 22.6117C37.8658 22.7057 37.6582 22.8434 37.4835 23.017C37.3087 23.1906 37.1701 23.3967 37.0755 23.6235C36.9809 23.8503 36.9322 24.0934 36.9322 24.3389C36.9322 24.5844 36.9809 24.8274 37.0755 25.0543C37.1701 25.2811 37.3087 25.4871 37.4835 25.6607L44.2408 32.3494L44.8226 32.931L56.1735 44.2009C56.2408 44.2676 56.2942 44.3468 56.3306 44.434C56.367 44.5211 56.3857 44.6146 56.3857 44.7089C56.3857 44.8033 56.367 44.8967 56.3306 44.9839C56.2942 45.0711 56.2408 45.1502 56.1735 45.2169C56.0363 45.3471 55.8538 45.4198 55.664 45.4198C55.4742 45.4198 55.2917 45.3471 55.1544 45.2169L32.232 22.4543C31.9685 22.1941 31.6335 22.0172 31.269 21.9459C30.9046 21.8744 30.527 21.9118 30.1838 22.0531C29.8407 22.1945 29.5473 22.4335 29.3407 22.7401C29.134 23.0467 29.0233 23.4072 29.0226 23.7761C29.0214 24.0212 29.0696 24.2641 29.1643 24.4905C29.259 24.7168 29.3982 24.9221 29.5739 25.0942L48.4922 43.895L53.8881 49.2694C54.0228 49.4038 54.0984 49.5858 54.0984 49.7754C54.0984 49.9651 54.0228 50.1471 53.8881 50.2815C53.7513 50.4126 53.5687 50.4859 53.3786 50.4859C53.1885 50.4859 53.0058 50.4126 52.869 50.2815L32.2016 29.7548C32.0268 29.5812 31.8193 29.4435 31.591 29.3495C31.3626 29.2556 31.1178 29.2072 30.8707 29.2072C30.6234 29.2072 30.3787 29.2556 30.1504 29.3495C29.922 29.4435 29.7145 29.5812 29.5397 29.7548C29.3649 29.9283 29.2263 30.1344 29.1317 30.3612C29.0371 30.588 28.9884 30.8311 28.9884 31.0766C28.9884 31.3221 29.0371 31.5652 29.1317 31.792C29.2263 32.0189 29.3649 32.2249 29.5397 32.3985L50.211 52.9291C50.345 53.0647 50.42 53.2471 50.42 53.437C50.42 53.627 50.345 53.8094 50.211 53.945C50.071 54.0713 49.8886 54.1413 49.6995 54.1413C49.5104 54.1413 49.328 54.0713 49.188 53.945L31.9962 36.8438C31.8215 36.6702 31.6139 36.5325 31.3856 36.4386C31.1572 36.3446 30.9125 36.2962 30.6653 36.2962C30.4181 36.2962 30.1733 36.3446 29.945 36.4386C29.7166 36.5325 29.5091 36.6702 29.3344 36.8438C29.1596 37.0174 29.021 37.2234 28.9264 37.4503C28.8318 37.6771 28.7831 37.9202 28.7831 38.1657C28.7831 38.4112 28.8318 38.6542 28.9264 38.8811C29.021 39.1079 29.1596 39.3139 29.3343 39.4875L34.9661 45.0809L35.5479 45.6626L44.7655 54.8137C44.8993 54.9486 44.9743 55.1304 44.9743 55.3198C44.9743 55.5091 44.8993 55.6909 44.7655 55.8259C44.6256 55.9522 44.4432 56.0222 44.2541 56.0222C44.065 56.0222 43.8826 55.9522 43.7426 55.8259L37.088 49.2165L32.3042 44.4615C31.9513 44.1109 31.4725 43.914 30.9733 43.914C30.4741 43.914 29.9954 44.1109 29.6424 44.4615C29.2894 44.8121 29.0911 45.2876 29.0911 45.7834C29.0911 46.2792 29.2894 46.7547 29.6424 47.1053L30.6615 48.1212L33.2701 50.7083L35.2323 52.6609L38.0805 55.4935C38.2017 55.6293 38.2666 55.8056 38.2621 55.9871C38.2576 56.1685 38.1841 56.3414 38.0564 56.4712C37.9286 56.6009 37.7562 56.6778 37.5737 56.6863C37.3911 56.6948 37.2122 56.6343 37.0728 56.517L35.7875 55.2405L32.3423 51.8187C31.9893 51.4681 31.5105 51.2712 31.0113 51.2712C30.5121 51.2712 30.0334 51.4681 29.6804 51.8187C29.3274 52.1693 29.1291 52.6448 29.1291 53.1406C29.1291 53.6364 29.3274 54.1119 29.6804 54.4624L33.4412 58.1975L34.2626 57.3857L30.5018 53.6504C30.3823 53.5133 30.3196 53.3363 30.3262 53.155C30.3328 52.9738 30.4082 52.8018 30.5373 52.6735C30.6664 52.5453 30.8396 52.4704 31.0221 52.4638C31.2046 52.4573 31.3828 52.5196 31.5209 52.6382L32.5819 53.692L36.2552 57.3139C36.6106 57.6598 37.0884 57.8539 37.5861 57.8539C38.0838 57.8539 38.5616 57.6598 38.917 57.3139C39.0923 57.1406 39.2313 56.9345 39.3262 56.7077C39.4211 56.4809 39.4699 56.2376 39.4699 55.992C39.4699 55.7464 39.4211 55.5032 39.3262 55.2763C39.2313 55.0495 39.0923 54.8435 38.917 54.6702L36.0651 51.8376L31.5019 47.3055L30.4828 46.2932C30.3481 46.1588 30.2725 45.9768 30.2725 45.7872C30.2725 45.5975 30.3481 45.4155 30.4828 45.2811C30.6227 45.1548 30.8051 45.0848 30.9942 45.0848C31.1834 45.0848 31.3657 45.1548 31.5057 45.2811L36.2742 50.0247L37.5139 51.2559L42.9289 56.6379C43.1924 56.8995 43.5281 57.0776 43.8935 57.1496C44.259 57.2216 44.6378 57.1843 44.9819 57.0423C45.326 56.9004 45.6199 56.6602 45.8264 56.3522C46.033 56.0442 46.1428 55.6823 46.1421 55.3122C46.1433 55.0671 46.0951 54.8242 46.0004 54.5979C45.9057 54.3715 45.7665 54.1663 45.5907 53.9941L36.3769 44.8392L35.7951 44.2614L30.171 38.6718C30.036 38.5366 29.9604 38.354 29.9604 38.1637C29.9604 37.9735 30.036 37.7909 30.171 37.6558C30.3109 37.5294 30.4933 37.4595 30.6824 37.4595C30.8716 37.4595 31.0539 37.5294 31.1939 37.6558L48.3895 54.7344C48.564 54.9084 48.7714 55.0465 48.9998 55.1407C49.2282 55.2349 49.4731 55.2834 49.7204 55.2834C49.9677 55.2834 50.2126 55.2349 50.441 55.1407C50.6694 55.0465 50.8768 54.9084 51.0513 54.7344C51.2266 54.561 51.3656 54.355 51.4605 54.1282C51.5554 53.9014 51.6042 53.6581 51.6042 53.4125C51.6042 53.1669 51.5554 52.9236 51.4605 52.6968C51.3656 52.47 51.2266 52.264 51.0513 52.0906L30.3611 31.5638C30.2273 31.4289 30.1523 31.2471 30.1523 31.0578C30.1523 30.8684 30.2273 30.6866 30.3611 30.5517C30.4979 30.4206 30.6806 30.3474 30.8707 30.3474C31.0607 30.3474 31.2434 30.4206 31.3802 30.5517L52.0514 51.0822C52.3141 51.3427 52.6487 51.52 53.0128 51.5918C53.3768 51.6636 53.7542 51.6267 54.0971 51.4856C54.4401 51.3446 54.7333 51.1059 54.9398 50.7994C55.1462 50.4931 55.2566 50.1328 55.2571 49.7641C55.2582 49.5188 55.2104 49.2757 55.1164 49.0488C55.0224 48.8219 54.8841 48.6158 54.7095 48.4423L50.1844 43.9479L30.3915 24.2822C30.2578 24.1473 30.1828 23.9655 30.1828 23.7761C30.1828 23.5868 30.2578 23.405 30.3915 23.2701C30.5315 23.1437 30.7138 23.0737 30.9029 23.0737C31.0921 23.0737 31.2744 23.1437 31.4144 23.2701L54.3293 46.0289C54.6822 46.3795 55.161 46.5765 55.6602 46.5765C56.1594 46.5765 56.6381 46.3795 56.9911 46.0289C57.3441 45.6783 57.5424 45.2029 57.5424 44.707C57.5424 44.2112 57.3441 43.7357 56.9911 43.3851L45.412 31.8962L38.3124 24.8412C38.2376 24.7764 38.177 24.697 38.1345 24.6079C38.0919 24.5188 38.0683 24.422 38.0651 24.3235C38.0619 24.225 38.0792 24.1268 38.1158 24.0352C38.1525 23.9435 38.2078 23.8604 38.2782 23.791C38.3487 23.7215 38.4328 23.6672 38.5253 23.6315C38.6178 23.5958 38.7168 23.5793 38.816 23.5833C38.9152 23.5872 39.0125 23.6114 39.1018 23.6543C39.1912 23.6972 39.2707 23.758 39.3354 23.8328L42.2748 26.7523L43.2026 27.6738Z" fill="white" stroke="white" stroke-width="0.5"/>
</svg>
