<svg width="1019" height="129" viewBox="0 0 1019 129" fill="none" xmlns="http://www.w3.org/2000/svg">
<path d="M29.0277 10.2893C58.0883 10.2893 77.1665 27.7967 77.1665 54.0957C77.1665 80.3947 58.063 97.8767 29.0277 97.8767L0.752431 97.8767L0.752441 10.2893L29.0277 10.2893ZM13.6232 92.5814L22.7696 92.5814C52.489 92.5814 63.7636 76.9237 63.7636 53.9437C63.7636 30.457 52.3623 15.6099 22.7696 15.6099L13.5979 15.6099L13.6232 92.5814Z" fill="#036661"/>
<path d="M142.354 61.7682C142.383 63.4664 142.247 65.1634 141.949 66.8355L96.977 66.8355C97.1037 82.8987 105.186 93.6666 117.55 93.6666C122.051 93.6159 126.441 92.2571 130.184 89.756C133.926 87.2548 136.861 83.7191 138.63 79.5796L138.63 93.2612C132.064 97.3246 124.459 99.3931 116.739 99.2152C96.977 99.2152 84.2329 85.8123 84.2329 66.2781C84.2329 46.7438 96.901 33.5183 114.636 33.5183C131.713 33.569 142.354 45.4517 142.354 61.7682ZM114.738 39.0922C104.274 39.0922 97.0024 48.8974 97.0024 61.5149L130.978 61.5149C131.333 47.4532 124.568 39.0922 114.738 39.0922V39.0922Z" fill="#036661"/>
<path d="M165.303 34.8328L165.303 46.9182L165.429 46.9182C167.316 42.8327 170.359 39.3902 174.183 37.0169C178.006 34.6437 182.441 33.4438 186.94 33.566C199.608 33.566 209.109 41.3949 209.109 60.6251L209.109 79.3486C209.152 85.5567 209.549 91.7573 210.3 97.92L197.429 97.92L197.429 61.9172C197.429 45.9807 191.576 40.8121 182.81 40.8121C172.676 40.8121 165.303 47.9823 165.303 61.3852L165.303 97.8694L153.623 97.8694L153.623 59.3836C153.623 52.4922 153.091 43.1937 152.305 34.8328L165.303 34.8328Z" fill="#036661"/>
<path d="M257.664 95.0914C254.251 98.0284 249.818 99.5029 245.325 99.1959C237.725 99.1959 227.59 96.8143 227.59 79.839L227.59 40.1624L217.228 40.1624L217.228 36.5647C229.034 37.2234 232.885 31.2694 233.949 16.5237L239.27 16.5237L239.27 34.8418L256.372 34.8418L256.372 40.1624L239.27 40.1624L239.27 83.2341C239.27 90.2775 242.843 93.5966 248.29 93.5966C250.132 93.5738 251.94 93.1 253.557 92.2166C255.173 91.3333 256.549 90.0672 257.563 88.5293L257.664 95.0914Z" fill="#036661"/>
<path d="M264.951 72.9238L264.951 53.4149C264.958 47.2051 264.561 41.0015 263.76 34.8435L276.631 34.8435L276.631 72.8478C276.631 86.9348 282.078 91.698 290.313 91.698C301.182 91.698 308.225 85.3386 308.225 69.6808L308.225 34.8435L319.905 34.8435L319.905 79.3085C319.957 85.5164 320.354 91.7165 321.096 97.88L308.225 97.88L308.225 85.668L308.099 85.668C306.354 89.7874 303.406 93.2835 299.639 95.6978C295.873 98.1122 291.465 99.3321 286.994 99.1975C273.996 99.1975 264.951 91.3686 264.951 72.9238Z" fill="#036661"/>
<path d="M361.846 42.9477C353.891 42.9477 347.126 51.562 347.126 65.497L347.126 79.3052C347.115 85.5151 347.513 91.719 348.317 97.8767L335.446 97.8767L335.446 53.4115C335.461 47.2015 335.063 40.9973 334.255 34.8401L347.075 34.8401L347.075 50.0418L347.202 50.0418C349.584 39.9073 355.816 33.8519 364.583 33.8519C367.067 33.795 369.528 34.3428 371.753 35.4481L371.753 48.471C370.644 46.8439 369.172 45.4975 367.452 44.5387C365.733 43.58 363.813 43.0352 361.846 42.9477V42.9477Z" fill="#036661"/>
<path d="M431.513 61.7684C431.541 63.4666 431.406 65.1635 431.107 66.8356L386.136 66.8356C386.262 82.8988 394.345 93.6667 406.709 93.6667C411.21 93.616 415.599 92.2573 419.342 89.7561C423.085 87.2549 426.019 83.7192 427.788 79.5797L427.788 93.2613C421.222 97.3247 413.617 99.3932 405.898 99.2154C386.136 99.2153 373.392 85.8125 373.392 66.2782C373.392 46.7439 386.06 33.5184 403.922 33.5184C420.897 33.5691 431.513 45.4518 431.513 61.7684ZM403.922 39.0924C393.433 39.0924 386.186 48.8975 386.186 61.515L420.162 61.515C420.542 47.4534 413.727 39.0924 403.922 39.0924Z" fill="#036661"/>
<path d="M535.171 77.4343L535.171 91.1159C526.863 96.5814 517.092 99.3994 507.149 99.1981C479.964 99.1981 461.24 80.5 461.24 53.821C461.24 27.674 480.09 8.9759 506.845 8.9759C516.907 8.77351 526.799 11.5885 535.247 17.0582L535.247 30.7397C527.266 19.3131 517.512 14.6765 506.187 14.6765C487.463 14.6765 474.719 29.3969 474.719 53.6943C474.719 77.9917 488.527 93.1175 507.656 93.1175C513.241 93.2838 518.763 91.9082 523.617 89.1415C528.471 86.3749 532.469 82.3242 535.171 77.4343V77.4343Z" fill="#036661"/>
<path d="M562.226 99.1912C550.951 99.1912 542.844 93.1106 542.844 83.0014C542.844 72.8923 550.951 67.7997 564.886 64.7087C577.098 62.0484 581.735 58.1973 581.735 50.6218C581.735 43.0463 577.352 39.0938 570.055 39.0938C562.099 39.0938 554.676 44.1611 548.418 53.1554L548.418 40.4873C554.837 35.7791 562.627 33.3129 570.587 33.4692C584.648 33.4692 593.389 41.298 593.389 53.8901L593.389 79.2263C593.292 85.5091 594.146 91.7706 595.923 97.7978L583.458 97.7978L582.394 88.3727L582.267 88.3727C579.074 94.9601 571.651 99.1912 562.226 99.1912ZM569.523 68.5598C558.375 71.4734 554.802 76.3887 554.802 82.3427C554.741 83.8225 554.994 85.2986 555.544 86.6737C556.094 88.0489 556.929 89.292 557.994 90.3212C559.059 91.3503 560.33 92.1423 561.723 92.6449C563.116 93.1475 564.6 93.3494 566.077 93.2372C575.223 93.2372 581.608 85.9404 581.608 72.5376L581.608 62.0484C578.332 65.393 574.118 67.6637 569.523 68.5598V68.5598Z" fill="#036661"/>
<path d="M634.158 42.9478C626.202 42.9478 619.437 51.5621 619.437 65.4971L619.437 79.3053C619.426 85.5152 619.824 91.7192 620.628 97.8768L607.757 97.8768L607.757 53.4116C607.777 47.2006 607.37 40.9956 606.541 34.8402L619.437 34.8402L619.437 50.0419L619.564 50.0419C621.945 39.9075 628.178 33.8521 636.945 33.8521C639.429 33.7951 641.889 34.3429 644.115 35.4482L644.115 48.4711C643.001 46.8373 641.521 45.4868 639.792 44.5277C638.063 43.5686 636.133 43.0276 634.158 42.9478V42.9478Z" fill="#036661"/>
<path d="M703.832 61.7684C703.861 63.4666 703.725 65.1635 703.427 66.8356L658.455 66.8356C658.582 82.8988 666.664 93.6667 679.003 93.6667C683.508 93.6209 687.903 92.2645 691.651 89.763C695.399 87.2615 698.337 83.7231 700.108 79.5797L700.108 93.2613C693.542 97.3247 685.937 99.3932 678.217 99.2154C658.455 99.2153 645.711 85.8125 645.711 66.2782C645.711 46.7439 658.379 33.5184 676.114 33.5184C693.216 33.5691 703.832 45.4518 703.832 61.7684ZM676.216 39.0924C665.752 39.0924 658.48 48.8975 658.48 61.515L692.456 61.515C692.811 47.4534 686.046 39.0924 676.216 39.0924Z" fill="#036661"/>
<path d="M734.087 77.0558C740.978 87.393 750.809 93.3723 761.171 93.3723C771.534 93.3723 778.907 87.2663 778.907 77.3092C778.907 66.1612 769.76 61.6514 760.335 59.2698C747.87 56.2041 734.999 48.6538 734.999 33.2494C734.999 19.0611 746.679 8.9773 763.401 8.9773C771.913 8.97682 780.212 11.6341 787.141 16.5782L787.141 30.2597C781.44 20.8347 773.485 14.602 763.528 14.6019C754.102 14.6019 747.059 20.3026 747.059 29.1956C747.059 40.2168 757.422 44.8534 766.847 47.2351C779.515 50.5541 791.271 57.5976 791.271 72.5713C791.271 88.6345 779.439 99.0983 760.614 99.0983C751.087 99.2873 741.761 96.3507 734.062 90.7374L734.087 77.0558Z" fill="#036661"/>
<path d="M813.063 0.987184L813.063 46.9217L813.266 46.9217C815.105 42.855 818.097 39.4173 821.871 37.0349C825.645 34.6524 830.035 33.4299 834.497 33.5189C847.495 33.5189 856.92 41.3478 856.92 60.578L856.92 79.3014C856.976 85.5091 857.373 91.709 858.111 97.8729L845.24 97.8729L845.24 61.9208C845.24 45.9843 839.261 40.8157 830.52 40.8157C820.385 40.8157 813.139 47.9859 813.139 61.3888L813.139 97.8729L801.459 97.8729L801.459 25.5379C801.459 18.6465 800.927 9.34814 800.116 0.987183L813.063 0.987184Z" fill="#036661"/>
<path d="M929.56 66.5048C929.56 86.0137 916.892 99.2645 897.459 99.2645C878.026 99.2645 865.333 85.8616 865.333 66.5048C865.333 47.1479 878.001 33.5678 897.459 33.5678C916.917 33.5678 929.56 46.9199 929.56 66.5048ZM877.798 66.5048C877.798 84.0121 886.311 94.0959 897.459 94.0959C908.607 94.0959 917.095 83.9614 917.095 66.5048C917.095 49.0482 908.607 38.635 897.459 38.635C886.311 38.635 877.798 48.7695 877.798 66.5048Z" fill="#036661"/>
<path d="M950.409 47.5787C952.523 43.4174 955.734 39.9129 959.695 37.4436C963.655 34.9743 968.216 33.634 972.883 33.5678C989.072 33.5678 1000.75 47.0973 1000.75 66.5049C1000.75 86.3938 988.54 99.2646 972.604 99.2646C967.946 99.3264 963.37 98.0294 959.438 95.532C955.505 93.0347 952.385 89.4454 950.46 85.203L950.308 85.203L950.308 108.563C950.3 115.224 950.749 121.878 951.651 128.477L938.628 128.477L938.628 53.482C938.507 47.273 938.067 41.0744 937.311 34.9106L950.308 34.9106L950.308 47.5787L950.409 47.5787ZM949.877 66.4289C949.877 81.4279 958.086 91.7651 970.146 91.7651C982.206 91.7651 988.718 81.2759 988.718 66.2769C988.718 51.2778 982.08 40.8139 970.146 40.8139C958.213 40.8139 949.877 51.3031 949.877 66.5049L949.877 66.4289Z" fill="#036661"/>
<path d="M1009.88 33.8166C1008.33 33.8166 1006.88 33.4353 1005.55 32.6727C1004.21 31.8783 1003.15 30.8297 1002.35 29.5268C1001.59 28.1922 1001.21 26.7305 1001.21 25.1417C1001.21 23.5847 1001.59 22.1389 1002.35 20.8043C1003.15 19.4697 1004.21 18.421 1005.55 17.6584C1006.88 16.864 1008.33 16.4668 1009.88 16.4668C1011.44 16.4668 1012.89 16.864 1014.22 17.6584C1015.56 18.421 1016.6 19.4697 1017.37 20.8043C1018.16 22.1389 1018.56 23.5847 1018.56 25.1417C1018.56 26.7305 1018.16 28.1922 1017.37 29.5268C1016.6 30.8297 1015.56 31.8783 1014.22 32.6727C1012.89 33.4353 1011.44 33.8166 1009.88 33.8166ZM1009.88 31.8624C1011.09 31.8624 1012.2 31.5605 1013.22 30.9568C1014.27 30.353 1015.09 29.5427 1015.7 28.5259C1016.3 27.4773 1016.6 26.3492 1016.6 25.1417C1016.6 23.9342 1016.3 22.8221 1015.7 21.8052C1015.09 20.7566 1014.27 19.9304 1013.22 19.3267C1012.2 18.7229 1011.09 18.421 1009.88 18.421C1008.68 18.421 1007.55 18.7229 1006.5 19.3267C1005.48 19.9304 1004.67 20.7566 1004.07 21.8052C1003.46 22.8221 1003.16 23.9342 1003.16 25.1417C1003.16 26.3492 1003.46 27.4773 1004.07 28.5259C1004.67 29.5427 1005.48 30.353 1006.5 30.9568C1007.55 31.5605 1008.68 31.8624 1009.88 31.8624ZM1006.98 20.7566H1010.41C1011.27 20.7566 1011.95 21.0108 1012.46 21.5192C1012.97 22.0276 1013.22 22.6473 1013.22 23.3781C1013.22 24.7127 1012.73 25.5866 1011.74 25.9997L1013.36 29.5745H1011.27L1009.88 26.3333H1008.88V29.5745H1006.98V20.7566ZM1010.17 24.6651C1010.58 24.6651 1010.88 24.5539 1011.08 24.3314C1011.3 24.109 1011.41 23.8548 1011.41 23.5688C1011.41 23.251 1011.3 22.9968 1011.08 22.8062C1010.88 22.5837 1010.58 22.4725 1010.17 22.4725H1008.88V24.6651H1010.17Z" fill="#036661"/>
</svg>
